# xmcd CD database file
#
# Track frame offsets:
#	182
#	11642
#	24455
#	37090
#	49022
#	62005
#	75325
#	87960
#	99750
#	110875
#	123925
#	136202
#	149122
#	160982
#	172822
#	185675
#
# Disc length: 2652 seconds
#
# Revision: 0
# Processed by: cddbd v1.5.2PL0 Copyright (c) Steve Scherf et al.
# Submitted via: CDex 1.70beta2
#
DISCID=d20a5a10
DTITLE=Various Artist - Merenguew Y mas mernegues
DYEAR=1900
DGENRE=Merengue
TTITLE0=Celia Cruz - Vallan Vallende
TTITLE1=Conjunto Tipico Cibaeno - El Sombrero de Gaspar
TTITLE2=Carlos Argentino - En el Cachumbambe
TTITLE3=Joseito Mateo - Le negrita cacha
TTITLE4=Conjunto Tipico Cibaeno - Melaito
TTITLE5=Carlos Argentino - Solo Tengo un amor
TTITLE6=Conjunto Tipico Cibaeno - Rompecabezas
TTITLE7=Celia Cruz - Palo Mayimbe
TTITLE8=Joseito Mateo - El merengue esta de moda
TTITLE9=Conjunto Tipico Cibaeno - Attagacia
TTITLE10=Trio Reynoso - Las Mercedes
TTITLE11=Damiron Y Chapuseaux - Altagracia
TTITLE12=Celia Cruz - Merengue arrimao
TTITLE13=Conjunto Tipico Cibaeno - Bien Caliente
TTITLE14=Trio Reynoso - La Caravana
TTITLE15=Damiron y Chapuseaux - La Maricutana
EXTD=
EXTT0=
EXTT1=
EXTT2=
EXTT3=
EXTT4=
EXTT5=
EXTT6=
EXTT7=
EXTT8=
EXTT9=
EXTT10=
EXTT11=
EXTT12=
EXTT13=
EXTT14=
EXTT15=
PLAYORDER=
